<svg xmlns="http://www.w3.org/2000/svg" id="Ebene_4" viewBox="0 0 1996.63 758.86">
  <defs>
    <style>.cls-1{fill:#fcfcfc}.cls-2{fill:#ec6120}.cls-3{fill:#fcfcfc}</style>
  </defs>
  <title>logo</title>
  <g id="yWorks">
    <path class="cls-1"
          d="M1300.75 378.86c0-59.48 42.67-101.28 103-101.28s103.42 41.8 103.42 101.28-43.11 101.71-103.42 101.71-103-42.23-103-101.71m158.6 0c0-35.34-22.4-59.9-55.58-59.9-32.78 0-55.61 24.56-55.61 59.9s22.83 59.91 55.61 59.91c33.2 0 55.58-24.57 55.58-59.91m208.1-92.22l-12.07 39.66a71.63 71.63 0 0 0-25-4.32c-27.16 0-45.69 17.68-45.69 48.28V475h-47V282.75h31.89l9.06 28.44c11.22-21.54 30.6-32.76 55.59-32.76 13.36 0 24.14 3 33.18 8.21"/>
    <path class="cls-2"
          d="M1069.76 282.77v1.31L968.85 539.2h-50v-.85l30.2-68.08-82.31-186.21v-1.31h50.86l53.89 135.77c4.76 11.63-3.88-14.23 0 0 3.86-14.23 7.77-25.87 11.63-37.5l37.5-98.27h49.14z"/>
    <path class="cls-1"
          d="M1251.2 282.75l-29.73 85.33c-2.59 7.33-5.17 15.08-7.33 23.72a204.58 204.58 0 0 0-11.22-24.14l-37.5-75.43h-9.91L1118 367.66c-3.89 7.75-7.34 15.08-10.77 23.7-2.16-8.18-4.32-15.51-6.89-23.28l-22.27-63.91-25.7 64.92 40.2 107.6h14.23l53.87-107.33 53.45 107.33h14.65l72-192.65v-1.29zm676.6 78.01c-20.69-7.33-34.92-14.64-34.92-27.15 0-12.07 12.5-16.37 27.17-16.37 12.9 0 28.44 3.89 42.65 11.22l16.37-31.46c-20.67-12.07-40.92-17.25-62.9-17.25-36.63 0-68.08 18.53-68.08 53.87 0 31.48 23.7 47.41 54.3 59 18.95 7.34 37.06 14.23 37.06 28.47 0 12.07-11.21 19.81-28.44 19.81-18.11 0-36.19-5.6-52.6-15.95l-3.09-2.16v43.73c18 8.48 37.1 12.73 59.12 12.73 42.24 0 71.11-22.39 71.11-58.16 0-31.94-24.14-47.89-57.75-60.38m-94.34 88.24l-62.66-73.1 62.66-74.69v-18.41h-39.39l-63.82 76.29V216.38h-46.95v258.6h46.95v-81.89l68.97 81.89h34.24v-26.03z"/>
  </g>
  <path class="cls-3"
        d="M11.92 302.76l.73 156.66a222.79 222.79 0 0 0 112.26 192.42L261 729.54a222.78 222.78 0 0 0 222.75-1l135.32-79A222.69 222.69 0 0 0 729.5 456.1l-.72-156.68a222.67 222.67 0 0 0-112.27-192.36l-136-77.74a222.74 222.74 0 0 0-222.73 1l-135.35 79A222.74 222.74 0 0 0 11.92 302.76"/>
  <path class="cls-2"
        d="M223.18 327.81c-10.72 0-20.59.54-30.21-2-18.94-5-31.7-16.5-36.44-35.86-5.4-22.08 8.85-45.56 30.75-51.54 16.29-4.45 30.46-.25 43.32 9.89 8.85 7 14.52 16.45 20 26.05 5.09 8.91 9.93 18 16.14 26.2 7.61 10 17.08 18 27.76 24.7s21.67 13.23 33 18.88c16.43 8.21 33.72 12.49 52.46 10.45 17.49-1.91 32.84-8.93 47.63-17.74 6.53-3.88 13.17-7.56 19.66-11.57a106.69 106.69 0 0 0 35.94-37.21c5.67-9.6 10.7-19.57 17.26-28.6 7.92-10.91 18.1-18.62 31.39-21.74 19.68-4.59 42.8 5.53 51 26.41 9.37 23.7-2.48 49.42-26.49 59a66.72 66.72 0 0 1-25.2 4.72h-22.88a115.48 115.48 0 0 0-37.33 6.15c-8.58 3-16.45 7.48-24.33 11.93-7.66 4.34-15.27 8.79-22.72 13.5-13 8.25-24 18.66-31.6 32.24a93 93 0 0 0-12.07 37.52c-1.06 11.45-.86 22.94-.79 34.41.06 12.15.87 24.22 4.48 36a132.92 132.92 0 0 0 11.43 25.61c6.11 11 13.4 21.3 17.2 33.49 3.95 12.63 4 25.1-1.74 37.09-7 14.52-18.53 23.2-34.74 25.24-14.5 1.83-27-2.87-36.94-13.07-10.4-10.7-14.23-24.1-12.29-39 1.8-14.09 8.91-25.91 16.07-37.73 7.38-12.22 14.07-24.77 16.85-39a138.52 138.52 0 0 0 1.85-15.06 275.5 275.5 0 0 0 .54-32.76c-.5-14.11-1.35-28.19-7.23-41.43-4.57-10.26-10.16-19.75-18.07-27.85-8.54-8.75-18.43-15.59-29-21.73-8.58-5-17.08-10.14-26-14.51a106.19 106.19 0 0 0-38.73-10.38c-6.97-.7-13.91-.36-19.93-.7z"/>
  <path class="cls-1"
        d="M880.82 619.51v-29l-9.47-.44v-5.5h9.47v-16.15h6.72v16.19h17.4v5.94h-17.4v29c0 6.17 2.53 8.26 6.83 8.26a16.06 16.06 0 0 0 9.58-3.3l3 5.06a21.79 21.79 0 0 1-13.21 4.63c-7.96-.04-12.92-4.67-12.92-14.69zm74.99-15.96v29.73h-6.72v-29.95c0-8.15-3.3-13.44-11.45-13.44-10.35 0-16.08 8.81-16.08 19.38v24h-6.71v-78.94h6.71v31.49c0 2.42 0 4.73-.11 7.6 3-5.73 8.59-9.8 16.85-9.8 11.89 0 17.51 7.49 17.51 19.93zm57.03 3.45a35.67 35.67 0 0 1-.33 4.74h-39c1.1 10.35 9 16.51 18.17 16.51 6.83 0 11.12-2.09 14.86-5.94l3.86 4.84a25.69 25.69 0 0 1-18.61 7.38c-14.76 0-25.11-10.57-25.11-25.66 0-14.09 10.13-25.43 24.56-25.43 13.56-.04 21.6 9.32 21.6 23.56zm-39.09-1.21h32.48c-.22-10.35-6.16-16.08-15.08-16.08s-16.08 6.35-17.4 16.04zM1093 554.33v78.95h-5.18l-1-8.7c-4 6-10.68 9.8-19.16 9.8-14.42 0-24.44-10.79-24.44-25.66 0-14.42 10.13-25.1 24.44-25.1 7.93 0 14.87 3.52 18.83 9.25-.11-4.19-.22-8.59-.22-13.22v-25.32zm-6.5 54.61c0-11-7.38-19.05-18.39-19.05-10.79 0-18.17 7.93-18.17 19.05s7.38 19 18.17 19c11.23.06 18.39-7.94 18.39-19zm19.93-41.94a5.07 5.07 0 1 1 5.06 4.85 4.85 4.85 0 0 1-5.06-4.85zm1.65 17.62h6.72v48.67h-6.72zm58.03 16.29v32.37h-5l-1.21-8.81c-3.52 5.83-9.8 9.69-18.39 9.69-9.47 0-15.52-5.18-15.52-13.55 0-10.9 10-17.17 24.33-17.17a68.77 68.77 0 0 1 8.92.44v-3.31c0-6.82-4.85-10.24-12.33-10.24a38.24 38.24 0 0 0-16.08 4.08l-2.31-5.73a44.78 44.78 0 0 1 19-4.62c11.21 0 18.59 5.83 18.59 16.85zm-6.83 8.58a58.33 58.33 0 0 0-7.93-.44c-11.45 0-18.28 4-18.28 11.12 0 4.85 3.53 7.71 9.58 7.71 10.02 0 16.35-7.27 16.63-18.39zm67.49-24.88v51.86c0 15-11.12 22.13-24 22.13-9.47 0-16.41-3.19-22-8.7l4.18-4.73a23.76 23.76 0 0 0 17.51 7.16c9.91 0 17.62-5.18 17.62-16 0-3.74 0-7.38.11-11a23.5 23.5 0 0 1-18.72 8.81c-15 0-24.45-11.34-24.45-25.22s9.25-25.32 24.12-25.32c7.93 0 14.86 3.08 19.16 9l1.54-8zm-6.49 24.33c0-10.24-6.06-19.05-18.39-19.05-11.45 0-18.06 8.37-18.06 18.94 0 10.79 6.94 19 18 19 12.17.05 18.45-8.65 18.45-18.89zm50.09-23.67l-2 6a17.74 17.74 0 0 0-6.49-1.22c-7.93 0-13.33 5.62-13.33 15.09v28.19h-6.71v-48.72h5.06l1.32 7.16c2.75-5.07 7.38-8.15 14.21-8.15a19.14 19.14 0 0 1 7.94 1.65zm42.5 15.64v32.37h-4.95l-1.21-8.81c-3.53 5.83-9.8 9.69-18.39 9.69-9.47 0-15.53-5.18-15.53-13.55 0-10.9 10-17.17 24.34-17.17a68.77 68.77 0 0 1 8.92.44v-3.31c0-6.82-4.85-10.24-12.33-10.24a38.24 38.24 0 0 0-16.08 4.08l-2.31-5.73a44.75 44.75 0 0 1 19.05-4.62c11.12 0 18.49 5.83 18.49 16.85zm-6.82 8.58a58.33 58.33 0 0 0-7.93-.44c-11.45 0-18.28 4-18.28 11.12 0 4.85 3.53 7.71 9.58 7.71 10.02 0 16.3-7.27 16.63-18.39zm92.82-6.71v30.5h-6.72v-30.83c0-7.82-4-12.56-10.79-12.56-9.8 0-14.86 8.92-14.86 18.06v25.33h-6.72v-30.94c0-6.72-3.41-12.45-10.79-12.45-9.91 0-15 8.92-15 18.06v25.33h-6.71v-48.67h5.06l1.54 8.37a17.29 17.29 0 0 1 15.86-9.36c7.38 0 12.77 3.63 15.08 9.8 3.2-5.95 8.81-9.8 17-9.8 11.1 0 17.05 7.38 17.05 19.16zm85.99 0v30.5h-6.72v-30.83c0-7.82-4-12.56-10.79-12.56-9.8 0-14.86 8.92-14.86 18.06v25.33h-6.72v-30.94c0-6.72-3.41-12.45-10.79-12.45-9.91 0-15 8.92-15 18.06v25.33h-6.71v-48.67h5.06l1.54 8.37a17.29 17.29 0 0 1 15.86-9.36c7.38 0 12.77 3.63 15.08 9.8 3.2-5.95 8.81-9.8 17-9.8 11.1 0 17.05 7.38 17.05 19.16zm12.77-35.78a5.07 5.07 0 1 1 5.06 4.85 4.85 4.85 0 0 1-5.06-4.85zm1.65 17.62h6.72v48.67h-6.72zm62.72 18.93v29.73h-6.71v-29.84c0-8.26-3.09-13.55-11.24-13.55-9.8 0-16.29 7.05-16.29 17.18v26.21h-6.72v-48.67h5.07l1.54 8.26c2.86-5.18 8.81-9.25 17.06-9.25 11.39 0 17.29 7.26 17.29 19.93zm60.71-18.94v51.86c0 15-11.12 22.13-24 22.13-9.47 0-16.41-3.19-22-8.7l4.19-4.73a23.75 23.75 0 0 0 17.51 7.16c9.91 0 17.61-5.18 17.61-16 0-3.74 0-7.38.11-11a23.48 23.48 0 0 1-18.72 8.81c-15 0-24.44-11.34-24.44-25.22s9.25-25.32 24.11-25.32c7.93 0 14.87 3.08 19.16 9l1.54-8zm-6.5 24.33c0-10.24-6-19.05-18.38-19.05-11.46 0-18.06 8.37-18.06 18.94 0 10.79 6.93 19 17.94 19 12.23.05 18.5-8.65 18.5-18.89zm87.21-1.94a35.67 35.67 0 0 1-.33 4.74h-39c1.1 10.35 9 16.51 18.17 16.51 6.82 0 11.12-2.09 14.86-5.94l3.85 4.84a25.67 25.67 0 0 1-18.61 7.38c-14.75 0-25.1-10.57-25.1-25.66 0-14.09 10.13-25.43 24.55-25.43 13.57-.04 21.61 9.32 21.61 23.56zm-39.09-1.21h32.48c-.22-10.35-6.17-16.08-15.09-16.08s-16.07 6.35-17.39 16.04zm43.16 27.27l18.06-25.44-16.3-22.79v-.22h7.75l8.59 12.22a55 55 0 0 1 3.85 5.95c1.32-2.21 2.75-4.3 4-6.06l8.7-12.11h7.49v.22l-16.3 22.79 18.06 25.44v.22h-7.71l-10-14.21a60.07 60.07 0 0 1-4.18-6.49c-1.54 2.53-2.75 4.51-4.29 6.6l-10.21 14.1h-7.49zm102.73-24.34c0 15-10.13 25.66-24.11 25.66a23.29 23.29 0 0 1-18.94-9.14c.11 3.74.22 8.26.22 13.1v19.16h-6.72v-72.89h5.07l1.43 8.15c4.18-5.62 10.79-9.14 19-9.14 13.92 0 24.05 10.57 24.05 25.1zm-6.72.33c0-11.23-7.38-19.16-17.84-19.16-10.9 0-18.6 7.71-18.6 18.83 0 11.56 7.81 19.38 18.6 19.38 10.46 0 17.84-7.93 17.84-19.05zm61-2.05a35.67 35.67 0 0 1-.33 4.74h-39c1.1 10.35 9 16.51 18.17 16.51 6.83 0 11.12-2.09 14.86-5.94l3.86 4.84a25.69 25.69 0 0 1-18.61 7.38c-14.75 0-25.1-10.57-25.1-25.66 0-14.09 10.13-25.43 24.55-25.43 13.56-.04 21.6 9.32 21.6 23.56zm-39.09-1.21h32.48c-.22-10.35-6.16-16.08-15.08-16.08s-16.08 6.35-17.4 16.04zm78.51-20.52l-2 6a17.83 17.83 0 0 0-6.5-1.22c-7.93 0-13.32 5.62-13.32 15.09v28.19h-6.72v-48.72h5.06l1.33 7.16c2.75-5.07 7.37-8.15 14.2-8.15a19.19 19.19 0 0 1 7.95 1.65zm11.34 34.24v-29l-9.47-.44v-5.5h9.47v-16.15h6.74v16.19h17.4v5.94H1922v29c0 6.17 2.54 8.26 6.83 8.26a16 16 0 0 0 9.58-3.3l3 5.06a21.79 21.79 0 0 1-13.21 4.63c-7.99-.04-12.94-4.67-12.94-14.69zm30.17 9.25l3.41-5.28a23.48 23.48 0 0 0 14.31 4.4c5.95 0 9.8-3 9.8-7.38 0-4.73-5.39-7.15-11.23-9.47-7.93-3.08-14.53-6.82-14.53-14.64 0-8.15 7.48-12.33 15.74-12.33a27 27 0 0 1 14.76 4.4l-3 4.85a23.49 23.49 0 0 0-11.45-3.09c-5 0-9.36 1.66-9.36 6.17s4.52 6.61 10.24 8.81c8.81 3.3 15.53 7.16 15.53 15.3s-6.94 13.66-16.52 13.66a30.36 30.36 0 0 1-17.7-5.4z"/>
</svg>

